<?xml version="1.0" encoding="UTF-8"?>
<svg id="Layer_2" data-name="Layer 2" xmlns="http://www.w3.org/2000/svg" viewBox="0 0 45.45 25.75">
  <defs>
    <style>
      .cls-1 {
        fill: #662d91;
      }

      .cls-2 {
        font-size: 20.52px;
      }

      .cls-2, .cls-3, .cls-4, .cls-5 {
        fill: #fff;
        font-family: Impact, Impact;
      }

      .cls-3 {
        font-size: 10px;
      }

      .cls-4 {
        font-size: 21px;
      }

      .cls-6 {
        fill: #1b1464;
      }

      .cls-7 {
        fill: #838bc5;
      }

      .cls-5 {
        font-size: 8px;
      }
    </style>
  </defs>
  <g id="Layer_1-2" data-name="Layer 1">
    <text class="cls-4" transform="translate(.04 18.81) rotate(-.13) scale(.84 1)"><tspan x="0" y="0">I</tspan></text>
    <text class="cls-2" transform="translate(13.69 18.6) scale(.78 1)"><tspan x="0" y="0">T</tspan></text>
    <text class="cls-3" transform="translate(5.17 18.69) scale(1.05 1)"><tspan x="0" y="0" xml:space="preserve">ns  ant</tspan></text>
    <text class="cls-5" transform="translate(21.29 10.57)"><tspan x="0" y="0">ransfer</tspan></text>
    <path class="cls-7" d="M34.34,16.02c.25-4.88,8.31-5.32,10.63-1.73,.34,.55,.54,1.19,.46,1.81-.91-4.55-10.08-4.62-11.09-.09h0Z"/>
    <path class="cls-1" d="M35.83,15.99c.24-2.9,6.06-2.94,7.66-1.13,.3,.31,.53,.76,.46,1.18-.1-.41-.36-.7-.69-.9-1.72-1.06-6.48-1.31-7.42,.85h0Z"/>
    <path class="cls-6" d="M37.59,16.5c-.04-1.06,1.43-1.38,2.27-1.39,.83,.02,2.32,.36,2.25,1.42-.41-.91-4.08-.92-4.52-.02h0Z"/>
  </g>
</svg>